<?xml version="1.0" encoding="UTF-8" standalone="yes"?><svg xmlns="http://www.w3.org/2000/svg" xmlns:xlink="http://www.w3.org/1999/xlink" height="282pt" style="width:805px;height:282px;" version="1.1" viewBox="0 0 805 282" width="805pt"><defs><filter height="300%" id="f1" width="300%" x="-1" y="-1"><feGaussianBlur result="blurOut" stdDeviation="2"/><feColorMatrix in="blurOut" result="blurOut2" type="matrix" values="0 0 0 0 0 0 0 0 0 0 0 0 0 0 0 0 0 0 .4 0"/><feOffset dx="4" dy="4" in="blurOut2" result="blurOut3"/><feBlend in="SourceGraphic" in2="blurOut3" mode="normal"/></filter></defs><g><text fill="#000000" font-size="13" font-weight="bold" lengthAdjust="spacingAndGlyphs" textLength="273" x="266" y="20">Interactions - Sender/Receiver (local)</text><rect fill="#FFFFFF" filter="url(#f1)" height="190.5313" style="stroke: #000000; stroke-width: 1.0;" width="10" x="114" y="73.2656"/><rect fill="#FFFFFF" filter="url(#f1)" height="169.5313" style="stroke: #000000; stroke-width: 1.0;" width="10" x="355" y="94.2656"/><rect fill="#FFFFFF" filter="url(#f1)" height="126.3984" style="stroke: #000000; stroke-width: 1.0;" width="10" x="360" y="123.3984"/><rect fill="#FFFFFF" filter="url(#f1)" height="57.2656" style="stroke: #000000; stroke-width: 1.0;" width="10" x="502" y="165.5313"/><rect fill="#FFFFFF" filter="url(#f1)" height="14.1328" style="stroke: #000000; stroke-width: 1.0;" width="10" x="725" y="194.6641"/><line style="stroke: #000000; stroke-width: 1.0; stroke-dasharray: 5.0,5.0;" x1="119" x2="119" y1="63.2656" y2="281.7969"/><line style="stroke: #000000; stroke-width: 1.0; stroke-dasharray: 5.0,5.0;" x1="359.5" x2="359.5" y1="63.2656" y2="281.7969"/><line style="stroke: #000000; stroke-width: 1.0; stroke-dasharray: 5.0,5.0;" x1="506.5" x2="506.5" y1="63.2656" y2="281.7969"/><line style="stroke: #000000; stroke-width: 1.0; stroke-dasharray: 5.0,5.0;" x1="730" x2="730" y1="63.2656" y2="281.7969"/><rect fill="#FEFECE" filter="url(#f1)" height="29.1328" style="stroke: #000000; stroke-width: 1.5;" width="224" x="5" y="29.1328"/><text fill="#000000" font-size="13" lengthAdjust="spacingAndGlyphs" text-decoration="underline" textLength="210" x="12" y="49.1328">observable : ObservableEndpoint</text><rect fill="#FEFECE" filter="url(#f1)" height="29.1328" style="stroke: #000000; stroke-width: 1.5;" width="101" x="307.5" y="29.1328"/><text fill="#000000" font-size="13" lengthAdjust="spacingAndGlyphs" text-decoration="underline" textLength="87" x="314.5" y="49.1328">: LocalSender</text><rect fill="#FEFECE" filter="url(#f1)" height="29.1328" style="stroke: #000000; stroke-width: 1.5;" width="161" x="424.5" y="29.1328"/><text fill="#000000" font-size="13" lengthAdjust="spacingAndGlyphs" text-decoration="underline" textLength="147" x="431.5" y="49.1328">localRec: LocalReceiver</text><rect fill="#FEFECE" filter="url(#f1)" height="29.1328" style="stroke: #000000; stroke-width: 1.5;" width="136" x="660" y="29.1328"/><text fill="#000000" font-size="13" lengthAdjust="spacingAndGlyphs" text-decoration="underline" textLength="122" x="667" y="49.1328">: ObserverEndpoint</text><rect fill="#FFFFFF" filter="url(#f1)" height="190.5313" style="stroke: #000000; stroke-width: 1.0;" width="10" x="114" y="73.2656"/><rect fill="#FFFFFF" filter="url(#f1)" height="169.5313" style="stroke: #000000; stroke-width: 1.0;" width="10" x="355" y="94.2656"/><rect fill="#FFFFFF" filter="url(#f1)" height="126.3984" style="stroke: #000000; stroke-width: 1.0;" width="10" x="360" y="123.3984"/><rect fill="#FFFFFF" filter="url(#f1)" height="57.2656" style="stroke: #000000; stroke-width: 1.0;" width="10" x="502" y="165.5313"/><rect fill="#FFFFFF" filter="url(#f1)" height="14.1328" style="stroke: #000000; stroke-width: 1.0;" width="10" x="725" y="194.6641"/><line style="stroke: #000000; stroke-width: 1.0;" x1="124" x2="349" y1="94.2656" y2="94.2656"/><polygon fill="#000000" points="343,90.2656,353,94.2656,343,98.2656,347,94.2656" style="stroke: #000000; stroke-width: 1.0;"/><text fill="#000000" font-size="13" lengthAdjust="spacingAndGlyphs" textLength="207" x="131" y="90.2656">publish(observable, token) : void</text><line style="stroke: #000000; stroke-width: 1.0;" x1="365" x2="412" y1="118.5313" y2="118.5313"/><line style="stroke: #000000; stroke-width: 1.0;" x1="412" x2="412" y1="118.5313" y2="131.5313"/><line style="stroke: #000000; stroke-width: 1.0;" x1="370" x2="412" y1="131.5313" y2="131.5313"/><polygon fill="#000000" points="380,127.5313,370,131.5313,380,135.5313,376,131.5313" style="stroke: #000000; stroke-width: 1.0;"/><text fill="#000000" font-size="13" lengthAdjust="spacingAndGlyphs" textLength="115" x="377" y="114.3984">send(token) : void</text><line style="stroke: #000000; stroke-width: 1.0;" x1="370" x2="496" y1="165.5313" y2="165.5313"/><polygon fill="#000000" points="490,161.5313,500,165.5313,490,169.5313,494,165.5313" style="stroke: #000000; stroke-width: 1.0;"/><text fill="#000000" font-size="13" lengthAdjust="spacingAndGlyphs" textLength="108" x="377" y="161.5313">add(token) : void</text><line style="stroke: #000000; stroke-width: 1.0;" x1="512" x2="719" y1="194.6641" y2="194.6641"/><polygon fill="#000000" points="713,190.6641,723,194.6641,713,198.6641,717,194.6641" style="stroke: #000000; stroke-width: 1.0;"/><text fill="#000000" font-size="13" lengthAdjust="spacingAndGlyphs" textLength="189" x="519" y="190.6641">update(localRec, token) : void</text><line style="stroke: #000000; stroke-width: 1.0; stroke-dasharray: 2.0,2.0;" x1="512" x2="729" y1="208.7969" y2="208.7969"/><line style="stroke: #000000; stroke-width: 1.0;" x1="513" x2="523" y1="208.7969" y2="204.7969"/><line style="stroke: #000000; stroke-width: 1.0;" x1="513" x2="523" y1="208.7969" y2="212.7969"/><line style="stroke: #000000; stroke-width: 1.0; stroke-dasharray: 2.0,2.0;" x1="370" x2="506" y1="222.7969" y2="222.7969"/><line style="stroke: #000000; stroke-width: 1.0;" x1="371" x2="381" y1="222.7969" y2="218.7969"/><line style="stroke: #000000; stroke-width: 1.0;" x1="371" x2="381" y1="222.7969" y2="226.7969"/><line style="stroke: #000000; stroke-width: 1.0; stroke-dasharray: 2.0,2.0;" x1="370" x2="412" y1="241.7969" y2="241.7969"/><line style="stroke: #000000; stroke-width: 1.0; stroke-dasharray: 2.0,2.0;" x1="412" x2="412" y1="241.7969" y2="254.7969"/><line style="stroke: #000000; stroke-width: 1.0; stroke-dasharray: 2.0,2.0;" x1="365" x2="412" y1="254.7969" y2="254.7969"/><line style="stroke: #000000; stroke-width: 1.0;" x1="365" x2="375" y1="254.7969" y2="250.7969"/><line style="stroke: #000000; stroke-width: 1.0;" x1="365" x2="375" y1="254.7969" y2="258.7969"/><line style="stroke: #000000; stroke-width: 1.0; stroke-dasharray: 2.0,2.0;" x1="119" x2="359" y1="263.7969" y2="263.7969"/><line style="stroke: #000000; stroke-width: 1.0;" x1="120" x2="130" y1="263.7969" y2="259.7969"/><line style="stroke: #000000; stroke-width: 1.0;" x1="120" x2="130" y1="263.7969" y2="267.7969"/></g></svg>