<?xml version="1.0" encoding="UTF-8" standalone="yes"?><svg xmlns="http://www.w3.org/2000/svg" xmlns:xlink="http://www.w3.org/1999/xlink" height="744pt" style="width:1149px;height:744px;" version="1.1" viewBox="0 0 1149 744" width="1149pt"><defs><filter height="300%" id="f1" width="300%" x="-1" y="-1"><feGaussianBlur result="blurOut" stdDeviation="2"/><feColorMatrix in="blurOut" result="blurOut2" type="matrix" values="0 0 0 0 0 0 0 0 0 0 0 0 0 0 0 0 0 0 .4 0"/><feOffset dx="4" dy="4" in="blurOut2" result="blurOut3"/><feBlend in="SourceGraphic" in2="blurOut3" mode="normal"/></filter></defs><g><text fill="#000000" font-size="13" font-weight="bold" lengthAdjust="spacingAndGlyphs" textLength="235" x="457.5" y="20">Interactions - Receiver (remote)</text><rect fill="#FFFFFF" filter="url(#f1)" height="14.1328" style="stroke: #000000; stroke-width: 1.0;" width="10" x="141" y="690.125"/><rect fill="#FFFFFF" filter="url(#f1)" height="630.9922" style="stroke: #000000; stroke-width: 1.0;" width="10" x="413" y="94.2656"/><rect fill="#FFFFFF" filter="url(#f1)" height="384.1953" style="stroke: #000000; stroke-width: 1.0;" width="10" x="662" y="147.5313"/><rect fill="#FFFFFF" filter="url(#f1)" height="40.1328" style="stroke: #000000; stroke-width: 1.0;" width="10" x="667" y="290.0625"/><rect fill="#FFFFFF" filter="url(#f1)" height="40.1328" style="stroke: #000000; stroke-width: 1.0;" width="10" x="667" y="470.5938"/><rect fill="#FFFFFF" filter="url(#f1)" height="57.2656" style="stroke: #000000; stroke-width: 1.0;" width="10" x="662" y="560.7266"/><rect fill="#FFFFFF" filter="url(#f1)" height="19.1328" style="stroke: #000000; stroke-width: 1.0;" width="10" x="909" y="210.7969"/><rect fill="#FFFFFF" filter="url(#f1)" height="82.3984" style="stroke: #000000; stroke-width: 1.0;" width="10" x="909" y="359.1953"/><rect fill="#FFFFFF" filter="url(#f1)" height="14.1328" style="stroke: #000000; stroke-width: 1.0;" width="10" x="909" y="589.8594"/><rect fill="#FFFFFF" filter="url(#f1)" height="14.1328" style="stroke: #000000; stroke-width: 1.0;" width="10" x="1075" y="646.9922"/><rect fill="#FFFFFF" filter="url(#f1)" height="602.8594" style="stroke: #000000; stroke-width: 2.0;" width="1130" x="10" y="109.3984"/><rect fill="#FFFFFF" filter="url(#f1)" height="75.2656" style="stroke: #000000; stroke-width: 2.0;" width="496.5" x="533.5" y="162.6641"/><rect fill="#FEFECE" filter="url(#f1)" height="29.1328" style="stroke: #000000; stroke-width: 1.5;" width="208" x="808" y="179.7969"/><text fill="#000000" font-size="13" lengthAdjust="spacingAndGlyphs" text-decoration="underline" textLength="194" x="815" y="199.7969">: RemoteReceiverImplementor</text><rect fill="#FFFFFF" filter="url(#f1)" height="266.7969" style="stroke: #000000; stroke-width: 2.0;" width="496.5" x="533.5" y="251.9297"/><line style="stroke: #000000; stroke-width: 1.0; stroke-dasharray: 5.0,5.0;" x1="146" x2="146" y1="63.2656" y2="743.2578"/><line style="stroke: #000000; stroke-width: 1.0; stroke-dasharray: 5.0,5.0;" x1="417.5" x2="417.5" y1="63.2656" y2="743.2578"/><line style="stroke: #000000; stroke-width: 1.0; stroke-dasharray: 5.0,5.0;" x1="666.5" x2="666.5" y1="63.2656" y2="743.2578"/><line style="stroke: #000000; stroke-width: 1.0; stroke-dasharray: 5.0,5.0;" x1="914" x2="914" y1="211.8633" y2="743.2578"/><line style="stroke: #000000; stroke-width: 1.0; stroke-dasharray: 5.0,5.0;" x1="1080" x2="1080" y1="63.2656" y2="743.2578"/><rect fill="#FEFECE" filter="url(#f1)" height="29.1328" style="stroke: #000000; stroke-width: 1.5;" width="248" x="20" y="29.1328"/><text fill="#000000" font-size="13" lengthAdjust="spacingAndGlyphs" text-decoration="underline" textLength="234" x="27" y="49.1328">observerEndpoint: ObserverEndpoint</text><rect fill="#FEFECE" filter="url(#f1)" height="29.1328" style="stroke: #000000; stroke-width: 1.5;" width="227" x="302.5" y="29.1328"/><text fill="#000000" font-size="13" lengthAdjust="spacingAndGlyphs" text-decoration="underline" textLength="213" x="309.5" y="49.1328">receiverRemote: RemoteReceiver</text><rect fill="#FEFECE" filter="url(#f1)" height="29.1328" style="stroke: #000000; stroke-width: 1.5;" width="243" x="543.5" y="29.1328"/><text fill="#000000" font-size="13" lengthAdjust="spacingAndGlyphs" text-decoration="underline" textLength="229" x="550.5" y="49.1328">: RemoteReceiverImplementorProxy</text><rect fill="#FEFECE" filter="url(#f1)" height="29.1328" style="stroke: #000000; stroke-width: 1.5;" width="96" x="1030" y="29.1328"/><text fill="#000000" font-size="13" lengthAdjust="spacingAndGlyphs" text-decoration="underline" textLength="82" x="1037" y="49.1328">: ITranscoder</text><rect fill="#FFFFFF" filter="url(#f1)" height="14.1328" style="stroke: #000000; stroke-width: 1.0;" width="10" x="141" y="690.125"/><rect fill="#FFFFFF" filter="url(#f1)" height="630.9922" style="stroke: #000000; stroke-width: 1.0;" width="10" x="413" y="94.2656"/><rect fill="#FFFFFF" filter="url(#f1)" height="384.1953" style="stroke: #000000; stroke-width: 1.0;" width="10" x="662" y="147.5313"/><rect fill="#FFFFFF" filter="url(#f1)" height="40.1328" style="stroke: #000000; stroke-width: 1.0;" width="10" x="667" y="290.0625"/><rect fill="#FFFFFF" filter="url(#f1)" height="40.1328" style="stroke: #000000; stroke-width: 1.0;" width="10" x="667" y="470.5938"/><rect fill="#FFFFFF" filter="url(#f1)" height="57.2656" style="stroke: #000000; stroke-width: 1.0;" width="10" x="662" y="560.7266"/><rect fill="#FFFFFF" filter="url(#f1)" height="19.1328" style="stroke: #000000; stroke-width: 1.0;" width="10" x="909" y="210.7969"/><rect fill="#FFFFFF" filter="url(#f1)" height="82.3984" style="stroke: #000000; stroke-width: 1.0;" width="10" x="909" y="359.1953"/><rect fill="#FFFFFF" filter="url(#f1)" height="14.1328" style="stroke: #000000; stroke-width: 1.0;" width="10" x="909" y="589.8594"/><rect fill="#FFFFFF" filter="url(#f1)" height="14.1328" style="stroke: #000000; stroke-width: 1.0;" width="10" x="1075" y="646.9922"/><line style="stroke: #000000; stroke-width: 1.0;" x1="0" x2="407" y1="94.2656" y2="94.2656"/><polygon fill="#000000" points="401,90.2656,411,94.2656,401,98.2656,405,94.2656" style="stroke: #000000; stroke-width: 1.0;"/><text fill="#000000" font-size="13" lengthAdjust="spacingAndGlyphs" textLength="94" x="7" y="90.2656">receive() : void</text><rect fill="none" height="602.8594" style="stroke: #000000; stroke-width: 2.0;" width="1130" x="10" y="109.3984"/><polygon fill="#EEEEEE" points="10,109.3984,87,109.3984,87,116.3984,77,126.3984,10,126.3984,10,109.3984" style="stroke: #000000; stroke-width: 2.0;"/><text fill="#000000" font-size="13" font-weight="bold" lengthAdjust="spacingAndGlyphs" textLength="32" x="25" y="123.3984">loop</text><text fill="#000000" font-size="11" font-weight="bold" lengthAdjust="spacingAndGlyphs" textLength="91" x="102" y="122.3984">[! interrupted]</text><line style="stroke: #000000; stroke-width: 1.0;" x1="423" x2="656" y1="147.5313" y2="147.5313"/><polygon fill="#000000" points="650,143.5313,660,147.5313,650,151.5313,654,147.5313" style="stroke: #000000; stroke-width: 1.0;"/><text fill="#000000" font-size="13" lengthAdjust="spacingAndGlyphs" textLength="94" x="430" y="143.5313">receive() : void</text><rect fill="none" height="75.2656" style="stroke: #000000; stroke-width: 2.0;" width="496.5" x="533.5" y="162.6641"/><polygon fill="#EEEEEE" points="533.5,162.6641,597.5,162.6641,597.5,169.6641,587.5,179.6641,533.5,179.6641,533.5,162.6641" style="stroke: #000000; stroke-width: 2.0;"/><text fill="#000000" font-size="13" font-weight="bold" lengthAdjust="spacingAndGlyphs" textLength="19" x="548.5" y="176.6641">alt</text><text fill="#000000" font-size="11" font-weight="bold" lengthAdjust="spacingAndGlyphs" textLength="153" x="612.5" y="175.6641">[!isImplementorStarted]</text><line style="stroke: #000000; stroke-width: 1.0;" x1="672" x2="802" y1="200.7969" y2="200.7969"/><polygon fill="#000000" points="796,196.7969,806,200.7969,796,204.7969,800,200.7969" style="stroke: #000000; stroke-width: 1.0;"/><text fill="#000000" font-size="13" lengthAdjust="spacingAndGlyphs" textLength="85" x="679" y="196.7969">&lt;&lt;create&gt;&gt;</text><rect fill="#FEFECE" filter="url(#f1)" height="29.1328" style="stroke: #000000; stroke-width: 1.5;" width="208" x="808" y="179.7969"/><text fill="#000000" font-size="13" lengthAdjust="spacingAndGlyphs" text-decoration="underline" textLength="194" x="815" y="199.7969">: RemoteReceiverImplementor</text><line style="stroke: #000000; stroke-width: 1.0; stroke-dasharray: 2.0,2.0;" x1="672" x2="913" y1="229.9297" y2="229.9297"/><line style="stroke: #000000; stroke-width: 1.0;" x1="673" x2="683" y1="229.9297" y2="225.9297"/><line style="stroke: #000000; stroke-width: 1.0;" x1="673" x2="683" y1="229.9297" y2="233.9297"/><rect fill="none" height="266.7969" style="stroke: #000000; stroke-width: 2.0;" width="496.5" x="533.5" y="251.9297"/><polygon fill="#EEEEEE" points="533.5,251.9297,597.5,251.9297,597.5,258.9297,587.5,268.9297,533.5,268.9297,533.5,251.9297" style="stroke: #000000; stroke-width: 2.0;"/><text fill="#000000" font-size="13" font-weight="bold" lengthAdjust="spacingAndGlyphs" textLength="19" x="548.5" y="265.9297">alt</text><text fill="#000000" font-size="11" font-weight="bold" lengthAdjust="spacingAndGlyphs" textLength="111" x="612.5" y="264.9297">[! receiveDenied]</text><line style="stroke: #000000; stroke-width: 1.0;" x1="672" x2="719" y1="285.1953" y2="285.1953"/><line style="stroke: #000000; stroke-width: 1.0;" x1="719" x2="719" y1="285.1953" y2="298.1953"/><line style="stroke: #000000; stroke-width: 1.0;" x1="677" x2="719" y1="298.1953" y2="298.1953"/><polygon fill="#000000" points="687,294.1953,677,298.1953,687,302.1953,683,298.1953" style="stroke: #000000; stroke-width: 1.0;"/><text fill="#000000" font-size="13" lengthAdjust="spacingAndGlyphs" textLength="154" x="684" y="281.0625">applyQosPolicies() : void</text><line style="stroke: #000000; stroke-width: 1.0; stroke-dasharray: 2.0,2.0;" x1="677" x2="719" y1="322.1953" y2="322.1953"/><line style="stroke: #000000; stroke-width: 1.0; stroke-dasharray: 2.0,2.0;" x1="719" x2="719" y1="322.1953" y2="335.1953"/><line style="stroke: #000000; stroke-width: 1.0; stroke-dasharray: 2.0,2.0;" x1="672" x2="719" y1="335.1953" y2="335.1953"/><line style="stroke: #000000; stroke-width: 1.0;" x1="672" x2="682" y1="335.1953" y2="331.1953"/><line style="stroke: #000000; stroke-width: 1.0;" x1="672" x2="682" y1="335.1953" y2="339.1953"/><line style="stroke: #000000; stroke-width: 1.0;" x1="672" x2="903" y1="359.1953" y2="359.1953"/><polygon fill="#000000" points="897,355.1953,907,359.1953,897,363.1953,901,359.1953" style="stroke: #000000; stroke-width: 1.0;"/><text fill="#000000" font-size="13" lengthAdjust="spacingAndGlyphs" textLength="94" x="679" y="355.1953">receive() : void</text><polygon fill="#FBFB77" filter="url(#f1)" points="845,372.3281,845,397.3281,978,397.3281,978,382.3281,968,372.3281,845,372.3281" style="stroke: #A80036; stroke-width: 1.0;"/><line style="stroke: #A80036; stroke-width: 1.0;" x1="968" x2="968" y1="372.3281" y2="382.3281"/><line style="stroke: #A80036; stroke-width: 1.0;" x1="978" x2="968" y1="382.3281" y2="382.3281"/><text fill="#000000" font-size="13" lengthAdjust="spacingAndGlyphs" textLength="112" x="851" y="390.3281">Waiting for data...</text><line style="stroke: #000000; stroke-width: 1.0;" x1="919" x2="1149" y1="427.4609" y2="427.4609"/><line style="stroke: #000000; stroke-width: 1.0;" x1="920" x2="930" y1="427.4609" y2="423.4609"/><line style="stroke: #000000; stroke-width: 1.0;" x1="920" x2="930" y1="427.4609" y2="431.4609"/><text fill="#000000" font-size="13" lengthAdjust="spacingAndGlyphs" textLength="70" x="936" y="423.4609">send(data)</text><line style="stroke: #000000; stroke-width: 1.0; stroke-dasharray: 2.0,2.0;" x1="672" x2="913" y1="441.5938" y2="441.5938"/><line style="stroke: #000000; stroke-width: 1.0;" x1="673" x2="683" y1="441.5938" y2="437.5938"/><line style="stroke: #000000; stroke-width: 1.0;" x1="673" x2="683" y1="441.5938" y2="445.5938"/><line style="stroke: #000000; stroke-width: 1.0;" x1="672" x2="719" y1="465.7266" y2="465.7266"/><line style="stroke: #000000; stroke-width: 1.0;" x1="719" x2="719" y1="465.7266" y2="478.7266"/><line style="stroke: #000000; stroke-width: 1.0;" x1="677" x2="719" y1="478.7266" y2="478.7266"/><polygon fill="#000000" points="687,474.7266,677,478.7266,687,482.7266,683,478.7266" style="stroke: #000000; stroke-width: 1.0;"/><text fill="#000000" font-size="13" lengthAdjust="spacingAndGlyphs" textLength="147" x="684" y="461.5938">cleanupReceive() : void</text><line style="stroke: #000000; stroke-width: 1.0; stroke-dasharray: 2.0,2.0;" x1="677" x2="719" y1="502.7266" y2="502.7266"/><line style="stroke: #000000; stroke-width: 1.0; stroke-dasharray: 2.0,2.0;" x1="719" x2="719" y1="502.7266" y2="515.7266"/><line style="stroke: #000000; stroke-width: 1.0; stroke-dasharray: 2.0,2.0;" x1="672" x2="719" y1="515.7266" y2="515.7266"/><line style="stroke: #000000; stroke-width: 1.0;" x1="672" x2="682" y1="515.7266" y2="511.7266"/><line style="stroke: #000000; stroke-width: 1.0;" x1="672" x2="682" y1="515.7266" y2="519.7266"/><line style="stroke: #000000; stroke-width: 1.0; stroke-dasharray: 2.0,2.0;" x1="423" x2="666" y1="531.7266" y2="531.7266"/><line style="stroke: #000000; stroke-width: 1.0;" x1="424" x2="434" y1="531.7266" y2="527.7266"/><line style="stroke: #000000; stroke-width: 1.0;" x1="424" x2="434" y1="531.7266" y2="535.7266"/><line style="stroke: #000000; stroke-width: 1.0;" x1="423" x2="656" y1="560.7266" y2="560.7266"/><polygon fill="#000000" points="650,556.7266,660,560.7266,650,564.7266,654,560.7266" style="stroke: #000000; stroke-width: 1.0;"/><text fill="#000000" font-size="13" lengthAdjust="spacingAndGlyphs" textLength="213" x="430" y="556.7266">tokenData = getLastTokenData()</text><line style="stroke: #000000; stroke-width: 1.0;" x1="672" x2="903" y1="589.8594" y2="589.8594"/><polygon fill="#000000" points="897,585.8594,907,589.8594,897,593.8594,901,589.8594" style="stroke: #000000; stroke-width: 1.0;"/><text fill="#000000" font-size="13" lengthAdjust="spacingAndGlyphs" textLength="213" x="679" y="585.8594">tokenData = getLastTokenData()</text><line style="stroke: #000000; stroke-width: 1.0; stroke-dasharray: 2.0,2.0;" x1="672" x2="913" y1="603.9922" y2="603.9922"/><line style="stroke: #000000; stroke-width: 1.0;" x1="673" x2="683" y1="603.9922" y2="599.9922"/><line style="stroke: #000000; stroke-width: 1.0;" x1="673" x2="683" y1="603.9922" y2="607.9922"/><line style="stroke: #000000; stroke-width: 1.0; stroke-dasharray: 2.0,2.0;" x1="423" x2="666" y1="617.9922" y2="617.9922"/><line style="stroke: #000000; stroke-width: 1.0;" x1="424" x2="434" y1="617.9922" y2="613.9922"/><line style="stroke: #000000; stroke-width: 1.0;" x1="424" x2="434" y1="617.9922" y2="621.9922"/><line style="stroke: #000000; stroke-width: 1.0;" x1="423" x2="1069" y1="646.9922" y2="646.9922"/><polygon fill="#000000" points="1063,642.9922,1073,646.9922,1063,650.9922,1067,646.9922" style="stroke: #000000; stroke-width: 1.0;"/><text fill="#000000" font-size="13" lengthAdjust="spacingAndGlyphs" textLength="179" x="430" y="642.9922">token = decode(tokenData)</text><line style="stroke: #000000; stroke-width: 1.0; stroke-dasharray: 2.0,2.0;" x1="423" x2="1079" y1="661.125" y2="661.125"/><line style="stroke: #000000; stroke-width: 1.0;" x1="424" x2="434" y1="661.125" y2="657.125"/><line style="stroke: #000000; stroke-width: 1.0;" x1="424" x2="434" y1="661.125" y2="665.125"/><line style="stroke: #000000; stroke-width: 1.0;" x1="156" x2="412" y1="690.125" y2="690.125"/><polygon fill="#000000" points="163,686.125,153,690.125,163,694.125,159,690.125" style="stroke: #000000; stroke-width: 1.0;"/><text fill="#000000" font-size="13" lengthAdjust="spacingAndGlyphs" textLength="238" x="168" y="686.125">update(receiverRemote, token) : void</text><line style="stroke: #000000; stroke-width: 1.0; stroke-dasharray: 2.0,2.0;" x1="146" x2="412" y1="704.2578" y2="704.2578"/><line style="stroke: #000000; stroke-width: 1.0;" x1="411" x2="401" y1="704.2578" y2="700.2578"/><line style="stroke: #000000; stroke-width: 1.0;" x1="411" x2="401" y1="704.2578" y2="708.2578"/><line style="stroke: #000000; stroke-width: 1.0; stroke-dasharray: 2.0,2.0;" x1="0" x2="417" y1="725.2578" y2="725.2578"/><line style="stroke: #000000; stroke-width: 1.0;" x1="1" x2="11" y1="725.2578" y2="721.2578"/><line style="stroke: #000000; stroke-width: 1.0;" x1="1" x2="11" y1="725.2578" y2="729.2578"/></g></svg>