<?xml version="1.0" encoding="UTF-8" standalone="yes"?><svg xmlns="http://www.w3.org/2000/svg" xmlns:xlink="http://www.w3.org/1999/xlink" height="613pt" style="width:1216px;height:613px;" version="1.1" viewBox="0 0 1216 613" width="1216pt"><defs><filter height="300%" id="f1" width="300%" x="-1" y="-1"><feGaussianBlur result="blurOut" stdDeviation="2"/><feColorMatrix in="blurOut" result="blurOut2" type="matrix" values="0 0 0 0 0 0 0 0 0 0 0 0 0 0 0 0 0 0 .4 0"/><feOffset dx="4" dy="4" in="blurOut2" result="blurOut3"/><feBlend in="SourceGraphic" in2="blurOut3" mode="normal"/></filter></defs><g><text fill="#000000" font-size="13" font-weight="bold" lengthAdjust="spacingAndGlyphs" textLength="224" x="496.5" y="20">Interactions - Sender (remote)</text><rect fill="#FFFFFF" filter="url(#f1)" height="521.4609" style="stroke: #000000; stroke-width: 1.0;" width="10" x="142" y="73.2656"/><rect fill="#FFFFFF" filter="url(#f1)" height="500.4609" style="stroke: #000000; stroke-width: 1.0;" width="10" x="439" y="94.2656"/><rect fill="#FFFFFF" filter="url(#f1)" height="457.3281" style="stroke: #000000; stroke-width: 1.0;" width="10" x="444" y="123.3984"/><rect fill="#FFFFFF" filter="url(#f1)" height="14.1328" style="stroke: #000000; stroke-width: 1.0;" width="10" x="657" y="165.5313"/><rect fill="#FFFFFF" filter="url(#f1)" height="345.0625" style="stroke: #000000; stroke-width: 1.0;" width="10" x="836.5" y="208.6641"/><rect fill="#FFFFFF" filter="url(#f1)" height="40.1328" style="stroke: #000000; stroke-width: 1.0;" width="10" x="841.5" y="351.1953"/><rect fill="#FFFFFF" filter="url(#f1)" height="40.1328" style="stroke: #000000; stroke-width: 1.0;" width="10" x="841.5" y="492.5938"/><rect fill="#FFFFFF" filter="url(#f1)" height="19.1328" style="stroke: #000000; stroke-width: 1.0;" width="10" x="1068" y="271.9297"/><rect fill="#FFFFFF" filter="url(#f1)" height="43.2656" style="stroke: #000000; stroke-width: 1.0;" width="10" x="1068" y="420.3281"/><rect fill="#FFFFFF" filter="url(#f1)" height="75.2656" style="stroke: #000000; stroke-width: 2.0;" width="473" x="712" y="223.7969"/><rect fill="#FEFECE" filter="url(#f1)" height="29.1328" style="stroke: #000000; stroke-width: 1.5;" width="200" x="971" y="240.9297"/><text fill="#000000" font-size="13" lengthAdjust="spacingAndGlyphs" text-decoration="underline" textLength="186" x="978" y="260.9297">: RemoteSenderImplementor</text><rect fill="#FFFFFF" filter="url(#f1)" height="227.6641" style="stroke: #000000; stroke-width: 2.0;" width="495" x="712" y="313.0625"/><line style="stroke: #000000; stroke-width: 1.0; stroke-dasharray: 5.0,5.0;" x1="147" x2="147" y1="63.2656" y2="612.7266"/><line style="stroke: #000000; stroke-width: 1.0; stroke-dasharray: 5.0,5.0;" x1="444" x2="444" y1="63.2656" y2="612.7266"/><line style="stroke: #000000; stroke-width: 1.0; stroke-dasharray: 5.0,5.0;" x1="662" x2="662" y1="63.2656" y2="612.7266"/><line style="stroke: #000000; stroke-width: 1.0; stroke-dasharray: 5.0,5.0;" x1="841" x2="841" y1="63.2656" y2="612.7266"/><line style="stroke: #000000; stroke-width: 1.0; stroke-dasharray: 5.0,5.0;" x1="1073" x2="1073" y1="272.9961" y2="612.7266"/><rect fill="#FEFECE" filter="url(#f1)" height="29.1328" style="stroke: #000000; stroke-width: 1.5;" width="280" x="5" y="29.1328"/><text fill="#000000" font-size="13" lengthAdjust="spacingAndGlyphs" text-decoration="underline" textLength="266" x="12" y="49.1328">observableEndpoint : ObservableEndpoint</text><rect fill="#FEFECE" filter="url(#f1)" height="29.1328" style="stroke: #000000; stroke-width: 1.5;" width="118" x="383" y="29.1328"/><text fill="#000000" font-size="13" lengthAdjust="spacingAndGlyphs" text-decoration="underline" textLength="104" x="390" y="49.1328">: RemoteSender</text><rect fill="#FEFECE" filter="url(#f1)" height="29.1328" style="stroke: #000000; stroke-width: 1.5;" width="96" x="612" y="29.1328"/><text fill="#000000" font-size="13" lengthAdjust="spacingAndGlyphs" text-decoration="underline" textLength="82" x="619" y="49.1328">: ITranscoder</text><rect fill="#FEFECE" filter="url(#f1)" height="29.1328" style="stroke: #000000; stroke-width: 1.5;" width="235" x="722" y="29.1328"/><text fill="#000000" font-size="13" lengthAdjust="spacingAndGlyphs" text-decoration="underline" textLength="221" x="729" y="49.1328">: RemoteSenderImplementorProxy</text><rect fill="#FFFFFF" filter="url(#f1)" height="521.4609" style="stroke: #000000; stroke-width: 1.0;" width="10" x="142" y="73.2656"/><rect fill="#FFFFFF" filter="url(#f1)" height="500.4609" style="stroke: #000000; stroke-width: 1.0;" width="10" x="439" y="94.2656"/><rect fill="#FFFFFF" filter="url(#f1)" height="457.3281" style="stroke: #000000; stroke-width: 1.0;" width="10" x="444" y="123.3984"/><rect fill="#FFFFFF" filter="url(#f1)" height="14.1328" style="stroke: #000000; stroke-width: 1.0;" width="10" x="657" y="165.5313"/><rect fill="#FFFFFF" filter="url(#f1)" height="345.0625" style="stroke: #000000; stroke-width: 1.0;" width="10" x="836.5" y="208.6641"/><rect fill="#FFFFFF" filter="url(#f1)" height="40.1328" style="stroke: #000000; stroke-width: 1.0;" width="10" x="841.5" y="351.1953"/><rect fill="#FFFFFF" filter="url(#f1)" height="40.1328" style="stroke: #000000; stroke-width: 1.0;" width="10" x="841.5" y="492.5938"/><rect fill="#FFFFFF" filter="url(#f1)" height="19.1328" style="stroke: #000000; stroke-width: 1.0;" width="10" x="1068" y="271.9297"/><rect fill="#FFFFFF" filter="url(#f1)" height="43.2656" style="stroke: #000000; stroke-width: 1.0;" width="10" x="1068" y="420.3281"/><line style="stroke: #000000; stroke-width: 1.0;" x1="152" x2="433" y1="94.2656" y2="94.2656"/><polygon fill="#000000" points="427,90.2656,437,94.2656,427,98.2656,431,94.2656" style="stroke: #000000; stroke-width: 1.0;"/><text fill="#000000" font-size="13" lengthAdjust="spacingAndGlyphs" textLength="263" x="159" y="90.2656">publish(observableEndpoint, token) : void</text><line style="stroke: #000000; stroke-width: 1.0;" x1="449" x2="496" y1="118.5313" y2="118.5313"/><line style="stroke: #000000; stroke-width: 1.0;" x1="496" x2="496" y1="118.5313" y2="131.5313"/><line style="stroke: #000000; stroke-width: 1.0;" x1="454" x2="496" y1="131.5313" y2="131.5313"/><polygon fill="#000000" points="464,127.5313,454,131.5313,464,135.5313,460,131.5313" style="stroke: #000000; stroke-width: 1.0;"/><text fill="#000000" font-size="13" lengthAdjust="spacingAndGlyphs" textLength="115" x="461" y="114.3984">send(token) : void</text><line style="stroke: #000000; stroke-width: 1.0;" x1="454" x2="651" y1="165.5313" y2="165.5313"/><polygon fill="#000000" points="645,161.5313,655,165.5313,645,169.5313,649,165.5313" style="stroke: #000000; stroke-width: 1.0;"/><text fill="#000000" font-size="13" lengthAdjust="spacingAndGlyphs" textLength="179" x="461" y="161.5313">tokenData = encode(token)</text><line style="stroke: #000000; stroke-width: 1.0; stroke-dasharray: 2.0,2.0;" x1="454" x2="661" y1="179.6641" y2="179.6641"/><line style="stroke: #000000; stroke-width: 1.0;" x1="455" x2="465" y1="179.6641" y2="175.6641"/><line style="stroke: #000000; stroke-width: 1.0;" x1="455" x2="465" y1="179.6641" y2="183.6641"/><line style="stroke: #000000; stroke-width: 1.0;" x1="454" x2="830.5" y1="208.6641" y2="208.6641"/><polygon fill="#000000" points="824.5,204.6641,834.5,208.6641,824.5,212.6641,828.5,208.6641" style="stroke: #000000; stroke-width: 1.0;"/><text fill="#000000" font-size="13" lengthAdjust="spacingAndGlyphs" textLength="146" x="461" y="204.6641">send(tokenData) : void</text><rect fill="none" height="75.2656" style="stroke: #000000; stroke-width: 2.0;" width="473" x="712" y="223.7969"/><polygon fill="#EEEEEE" points="712,223.7969,776,223.7969,776,230.7969,766,240.7969,712,240.7969,712,223.7969" style="stroke: #000000; stroke-width: 2.0;"/><text fill="#000000" font-size="13" font-weight="bold" lengthAdjust="spacingAndGlyphs" textLength="19" x="727" y="237.7969">alt</text><text fill="#000000" font-size="11" font-weight="bold" lengthAdjust="spacingAndGlyphs" textLength="153" x="791" y="236.7969">[!isImplementorStarted]</text><line style="stroke: #000000; stroke-width: 1.0;" x1="846.5" x2="965" y1="261.9297" y2="261.9297"/><polygon fill="#000000" points="959,257.9297,969,261.9297,959,265.9297,963,261.9297" style="stroke: #000000; stroke-width: 1.0;"/><text fill="#000000" font-size="13" lengthAdjust="spacingAndGlyphs" textLength="85" x="853.5" y="257.9297">&lt;&lt;create&gt;&gt;</text><rect fill="#FEFECE" filter="url(#f1)" height="29.1328" style="stroke: #000000; stroke-width: 1.5;" width="200" x="971" y="240.9297"/><text fill="#000000" font-size="13" lengthAdjust="spacingAndGlyphs" text-decoration="underline" textLength="186" x="978" y="260.9297">: RemoteSenderImplementor</text><line style="stroke: #000000; stroke-width: 1.0; stroke-dasharray: 2.0,2.0;" x1="846.5" x2="1072" y1="291.0625" y2="291.0625"/><line style="stroke: #000000; stroke-width: 1.0;" x1="847.5" x2="857.5" y1="291.0625" y2="287.0625"/><line style="stroke: #000000; stroke-width: 1.0;" x1="847.5" x2="857.5" y1="291.0625" y2="295.0625"/><rect fill="none" height="227.6641" style="stroke: #000000; stroke-width: 2.0;" width="495" x="712" y="313.0625"/><polygon fill="#EEEEEE" points="712,313.0625,776,313.0625,776,320.0625,766,330.0625,712,330.0625,712,313.0625" style="stroke: #000000; stroke-width: 2.0;"/><text fill="#000000" font-size="13" font-weight="bold" lengthAdjust="spacingAndGlyphs" textLength="19" x="727" y="327.0625">alt</text><text fill="#000000" font-size="11" font-weight="bold" lengthAdjust="spacingAndGlyphs" textLength="95" x="791" y="326.0625">[! sendDenied]</text><line style="stroke: #000000; stroke-width: 1.0;" x1="846.5" x2="893.5" y1="346.3281" y2="346.3281"/><line style="stroke: #000000; stroke-width: 1.0;" x1="893.5" x2="893.5" y1="346.3281" y2="359.3281"/><line style="stroke: #000000; stroke-width: 1.0;" x1="851.5" x2="893.5" y1="359.3281" y2="359.3281"/><polygon fill="#000000" points="861.5,355.3281,851.5,359.3281,861.5,363.3281,857.5,359.3281" style="stroke: #000000; stroke-width: 1.0;"/><text fill="#000000" font-size="13" lengthAdjust="spacingAndGlyphs" textLength="154" x="858.5" y="342.1953">applyQosPolicies() : void</text><line style="stroke: #000000; stroke-width: 1.0; stroke-dasharray: 2.0,2.0;" x1="851.5" x2="893.5" y1="383.3281" y2="383.3281"/><line style="stroke: #000000; stroke-width: 1.0; stroke-dasharray: 2.0,2.0;" x1="893.5" x2="893.5" y1="383.3281" y2="396.3281"/><line style="stroke: #000000; stroke-width: 1.0; stroke-dasharray: 2.0,2.0;" x1="846.5" x2="893.5" y1="396.3281" y2="396.3281"/><line style="stroke: #000000; stroke-width: 1.0;" x1="846.5" x2="856.5" y1="396.3281" y2="392.3281"/><line style="stroke: #000000; stroke-width: 1.0;" x1="846.5" x2="856.5" y1="396.3281" y2="400.3281"/><line style="stroke: #000000; stroke-width: 1.0;" x1="846.5" x2="1062" y1="420.3281" y2="420.3281"/><polygon fill="#000000" points="1056,416.3281,1066,420.3281,1056,424.3281,1060,420.3281" style="stroke: #000000; stroke-width: 1.0;"/><text fill="#000000" font-size="13" lengthAdjust="spacingAndGlyphs" textLength="108" x="853.5" y="416.3281">send(tokenData)</text><line style="stroke: #000000; stroke-width: 1.0;" x1="1078" x2="1216" y1="449.4609" y2="449.4609"/><line style="stroke: #000000; stroke-width: 1.0;" x1="1215" x2="1205" y1="449.4609" y2="445.4609"/><line style="stroke: #000000; stroke-width: 1.0;" x1="1215" x2="1205" y1="449.4609" y2="453.4609"/><text fill="#000000" font-size="13" lengthAdjust="spacingAndGlyphs" textLength="108" x="1085" y="445.4609">send(tokenData)</text><line style="stroke: #000000; stroke-width: 1.0; stroke-dasharray: 2.0,2.0;" x1="846.5" x2="1072" y1="463.5938" y2="463.5938"/><line style="stroke: #000000; stroke-width: 1.0;" x1="847.5" x2="857.5" y1="463.5938" y2="459.5938"/><line style="stroke: #000000; stroke-width: 1.0;" x1="847.5" x2="857.5" y1="463.5938" y2="467.5938"/><line style="stroke: #000000; stroke-width: 1.0;" x1="846.5" x2="893.5" y1="487.7266" y2="487.7266"/><line style="stroke: #000000; stroke-width: 1.0;" x1="893.5" x2="893.5" y1="487.7266" y2="500.7266"/><line style="stroke: #000000; stroke-width: 1.0;" x1="851.5" x2="893.5" y1="500.7266" y2="500.7266"/><polygon fill="#000000" points="861.5,496.7266,851.5,500.7266,861.5,504.7266,857.5,500.7266" style="stroke: #000000; stroke-width: 1.0;"/><text fill="#000000" font-size="13" lengthAdjust="spacingAndGlyphs" textLength="147" x="858.5" y="483.5938">cleanupReceive() : void</text><line style="stroke: #000000; stroke-width: 1.0; stroke-dasharray: 2.0,2.0;" x1="851.5" x2="893.5" y1="524.7266" y2="524.7266"/><line style="stroke: #000000; stroke-width: 1.0; stroke-dasharray: 2.0,2.0;" x1="893.5" x2="893.5" y1="524.7266" y2="537.7266"/><line style="stroke: #000000; stroke-width: 1.0; stroke-dasharray: 2.0,2.0;" x1="846.5" x2="893.5" y1="537.7266" y2="537.7266"/><line style="stroke: #000000; stroke-width: 1.0;" x1="846.5" x2="856.5" y1="537.7266" y2="533.7266"/><line style="stroke: #000000; stroke-width: 1.0;" x1="846.5" x2="856.5" y1="537.7266" y2="541.7266"/><line style="stroke: #000000; stroke-width: 1.0; stroke-dasharray: 2.0,2.0;" x1="454" x2="840.5" y1="553.7266" y2="553.7266"/><line style="stroke: #000000; stroke-width: 1.0;" x1="455" x2="465" y1="553.7266" y2="549.7266"/><line style="stroke: #000000; stroke-width: 1.0;" x1="455" x2="465" y1="553.7266" y2="557.7266"/><line style="stroke: #000000; stroke-width: 1.0; stroke-dasharray: 2.0,2.0;" x1="454" x2="496" y1="572.7266" y2="572.7266"/><line style="stroke: #000000; stroke-width: 1.0; stroke-dasharray: 2.0,2.0;" x1="496" x2="496" y1="572.7266" y2="585.7266"/><line style="stroke: #000000; stroke-width: 1.0; stroke-dasharray: 2.0,2.0;" x1="449" x2="496" y1="585.7266" y2="585.7266"/><line style="stroke: #000000; stroke-width: 1.0;" x1="449" x2="459" y1="585.7266" y2="581.7266"/><line style="stroke: #000000; stroke-width: 1.0;" x1="449" x2="459" y1="585.7266" y2="589.7266"/><line style="stroke: #000000; stroke-width: 1.0; stroke-dasharray: 2.0,2.0;" x1="147" x2="443" y1="594.7266" y2="594.7266"/><line style="stroke: #000000; stroke-width: 1.0;" x1="148" x2="158" y1="594.7266" y2="590.7266"/><line style="stroke: #000000; stroke-width: 1.0;" x1="148" x2="158" y1="594.7266" y2="598.7266"/></g></svg>