<?xml version="1.0" encoding="UTF-8"?><svg xmlns="http://www.w3.org/2000/svg" xmlns:xlink="http://www.w3.org/1999/xlink" fill-opacity="1" color-rendering="auto" color-interpolation="auto" stroke="black" text-rendering="auto" stroke-linecap="square" width="711" stroke-miterlimit="10" stroke-opacity="1" shape-rendering="auto" fill="black" stroke-dasharray="none" font-weight="normal" stroke-width="1" height="1094" font-family="'Dialog'" font-style="normal" stroke-linejoin="miter" font-size="12" stroke-dashoffset="0" image-rendering="auto">
  <!--Generated by ySVG-->
  <defs id="genericDefs"/>
  <g>
    <defs id="defs1">
      <clipPath clipPathUnits="userSpaceOnUse" id="clipPath1">
        <path d="M0 0 L711 0 L711 1094 L0 1094 L0 0 Z"/>
      </clipPath>
      <clipPath clipPathUnits="userSpaceOnUse" id="clipPath2">
        <path d="M74 133 L785 133 L785 1227 L74 1227 L74 133 Z"/>
      </clipPath>
    </defs>
    <g fill="white" transform="translate(-74,-133)" stroke="white">
      <rect x="74" width="711" height="1094" y="133" clip-path="url(#clipPath2)" stroke="none"/>
    </g>
    <g stroke-linecap="butt" transform="matrix(1,0,0,1,-74,-133)" stroke-miterlimit="1.45">
      <path fill="none" d="M300.5109 341.9913 L295.1579 337.5703 L270.8375 321.375 L224.6598 294.75 L205.2259 282.3516 L189.8443 269.25 L184.0518 262.1279 L182.4131 259.2229 L182.3822 259.1278" clip-path="url(#clipPath2)"/>
      <path d="M179.9117 251.5188 L178.8618 264.4763 L182.691 260.0789 L188.373 261.3883 Z" clip-path="url(#clipPath2)" stroke="none"/>
      <rect x="218.4739" y="280.8762" clip-path="url(#clipPath2)" fill="white" width="72.5137" height="31.9375" stroke="none"/>
      <text x="229.966" xml:space="preserve" y="294.0168" font-family="sans-serif" clip-path="url(#clipPath2)" stroke="none">creating</text>
      <text x="220.4739" xml:space="preserve" y="307.9856" font-family="sans-serif" clip-path="url(#clipPath2)" stroke="none">composites</text>
      <path fill="none" d="M379.127 547.9924 L355.8732 512.5312 L345.2658 493.0742 L337.5202 474.25 L331.8128 453.6445 L327.3201 428.8438 L321.4391 379.9219" clip-path="url(#clipPath2)"/>
      <path d="M320.4843 371.9791 L316.9522 384.4901 L321.5584 380.9148 L326.8807 383.2966 Z" clip-path="url(#clipPath2)" stroke="none"/>
      <rect x="321.8665" y="474.0828" clip-path="url(#clipPath2)" fill="white" width="59.5703" height="31.9375" stroke="none"/>
      <text x="327.2913" xml:space="preserve" y="487.2235" font-family="sans-serif" clip-path="url(#clipPath2)" stroke="none">defining</text>
      <text x="323.8665" xml:space="preserve" y="501.1922" font-family="sans-serif" clip-path="url(#clipPath2)" stroke="none">grammar</text>
      <path fill="none" d="M688.9476 472.9923 L689.127 468.5469 L687.6349 451.3442 L684.1369 436.2516 L678.9042 423.1289 L672.2083 411.8358 L664.3205 402.232 L655.5121 394.1773 L646.0546 387.5314 L636.2191 382.1541 L626.2772 377.9051 L607.1593 372.231 L590.8716 369.3871 L579.585 368.2513 L536.5026 366.7211 L371.9261 366.5126" clip-path="url(#clipPath2)"/>
      <path d="M363.9261 366.5025 L375.9198 371.5177 L372.9261 366.5139 L375.9325 361.5177 Z" clip-path="url(#clipPath2)" stroke="none"/>
      <rect x="628.734" y="384.8242" clip-path="url(#clipPath2)" fill="white" width="60.0039" height="31.9375" stroke="none"/>
      <text x="634.3755" xml:space="preserve" y="397.9648" font-family="sans-serif" clip-path="url(#clipPath2)" stroke="none">defining</text>
      <text x="630.7339" xml:space="preserve" y="411.9336" font-family="sans-serif" clip-path="url(#clipPath2)" stroke="none">the chain</text>
      <path fill="none" d="M639.2811 337.5852 L597.0836 335.2031 L563.7744 334.5684 L530.9066 335.375 L494.222 337.8223 L449.4621 342.1094 L371.8109 350.9509" clip-path="url(#clipPath2)"/>
      <path d="M363.8622 351.8559 L376.3508 355.4662 L372.8044 350.8377 L375.2195 345.5305 Z" clip-path="url(#clipPath2)" stroke="none"/>
      <rect x="516.993" y="327.2795" clip-path="url(#clipPath2)" fill="white" width="102.0684" height="17.9688" stroke="none"/>
      <text x="518.993" xml:space="preserve" y="340.4201" font-family="sans-serif" clip-path="url(#clipPath2)" stroke="none">composed using</text>
      <path fill="none" d="M347.0605 342.0107 L369.887 329.9531 L390.4685 317.8887 L407.3059 305.625 L420.1011 292.2832 L424.8898 284.9333 L428.5562 276.9844 L431.0631 268.3264 L432.2172 259.9777 L432.2179 259.8777" clip-path="url(#clipPath2)"/>
      <path d="M432.2765 251.8779 L427.1888 263.841 L432.2106 260.8777 L437.1885 263.9142 Z" clip-path="url(#clipPath2)" stroke="none"/>
      <rect x="352.4775" y="291.0312" clip-path="url(#clipPath2)" fill="white" width="81.2148" height="31.9375" stroke="none"/>
      <text x="354.4775" xml:space="preserve" y="304.1719" font-family="sans-serif" clip-path="url(#clipPath2)" stroke="none">enumerating</text>
      <text x="368.8799" xml:space="preserve" y="318.1406" font-family="sans-serif" clip-path="url(#clipPath2)" stroke="none">children</text>
      <path fill="none" d="M520.053 455.004 L512.3094 402.7969 L506.7951 378.2598 L499.5051 356.125 L489.3727 333.6621 L475.3311 308.1406 L444.7433 258.772" clip-path="url(#clipPath2)"/>
      <path d="M440.5299 251.9715 L442.5998 264.8057 L445.2701 259.6221 L451.1004 259.5388 Z" clip-path="url(#clipPath2)" stroke="none"/>
      <rect x="483.0313" y="398.6541" clip-path="url(#clipPath2)" fill="white" width="63.6016" height="31.9375" stroke="none"/>
      <text x="490.4718" xml:space="preserve" y="411.7947" font-family="sans-serif" clip-path="url(#clipPath2)" stroke="none">defining</text>
      <text x="485.0313" xml:space="preserve" y="425.7635" font-family="sans-serif" clip-path="url(#clipPath2)" stroke="none">traversals</text>
      <path fill="none" d="M420.7815 221.9979 L417.3247 215.9531 L413.5323 206.291 L411.6686 197.25 L411.5937 188.8652 L413.1679 181.1719 L416.2516 174.2051 L420.705 168 L426.3883 162.5918 L433.162 158.0156 L440.8862 154.3066 L442.2068 153.8724 L442.3058 153.8579" clip-path="url(#clipPath2)"/>
      <path d="M450.2218 152.7018 L437.6252 149.4885 L441.3163 154.0025 L439.0704 159.3835 Z" clip-path="url(#clipPath2)" stroke="none"/>
      <rect x="363.4186" y="175.3983" clip-path="url(#clipPath2)" fill="white" width="77.4766" height="31.9375" stroke="none"/>
      <text x="365.4186" xml:space="preserve" y="188.5389" font-family="sans-serif" clip-path="url(#clipPath2)" stroke="none">saving state</text>
      <text x="369.1188" xml:space="preserve" y="202.5077" font-family="sans-serif" clip-path="url(#clipPath2)" stroke="none">of iteration</text>
      <path fill="none" d="M665.362 325.0056 L652.3234 313.2969 L623.3679 290.0625 L569.4307 248.75 L545.265 228.0469 L523.512 205.5625 L513.6678 193.2422 L504.5797 179.9844 L499.9419 171.9423 L499.899 171.852" clip-path="url(#clipPath2)"/>
      <path d="M496.4665 164.6258 L497.0988 177.6104 L500.328 172.7553 L506.1316 173.3198 Z" clip-path="url(#clipPath2)" stroke="none"/>
      <rect x="572.4614" y="263.4599" clip-path="url(#clipPath2)" fill="white" width="65.2012" height="31.9375" stroke="none"/>
      <text x="579.4097" xml:space="preserve" y="276.6005" font-family="sans-serif" clip-path="url(#clipPath2)" stroke="none">avoiding</text>
      <text x="574.4614" xml:space="preserve" y="290.5692" font-family="sans-serif" clip-path="url(#clipPath2)" stroke="none">hysteresis</text>
      <path fill="none" d="M280.8233 372.0056 L259.0858 381.5469 L241.3738 392.0332 L235.1052 397.5012 L230.3961 403.375 L227.1225 409.8464 L225.1601 417.1074 L224.3851 425.3499 L224.6732 434.7656 L227.9426 457.8848 L229.3935 465.1277" clip-path="url(#clipPath2)"/>
      <path d="M230.965 472.9718 L233.5104 460.2234 L229.1971 464.1472 L223.7052 462.1877 Z" clip-path="url(#clipPath2)" stroke="none"/>
      <rect x="187.7501" y="399.8461" clip-path="url(#clipPath2)" fill="white" width="72.5137" height="31.9375" stroke="none"/>
      <text x="201.6563" xml:space="preserve" y="412.9868" font-family="sans-serif" clip-path="url(#clipPath2)" stroke="none">sharing</text>
      <text x="189.7501" xml:space="preserve" y="426.9555" font-family="sans-serif" clip-path="url(#clipPath2)" stroke="none">composites</text>
      <path fill="none" d="M138.466 602.9854 L142.1946 593.7109 L154.0724 573.5 L167.4251 556.4766 L181.6144 541.75 L209.9505 515.625 L216.7037 508.7095" clip-path="url(#clipPath2)"/>
      <path d="M222.2931 502.9859 L210.3318 508.078 L216.0051 509.425 L217.4863 515.0646 Z" clip-path="url(#clipPath2)" stroke="none"/>
      <rect x="141.9945" y="545.3988" clip-path="url(#clipPath2)" fill="white" width="63.918" height="31.9375" stroke="none"/>
      <text x="151.6029" xml:space="preserve" y="558.5394" font-family="sans-serif" clip-path="url(#clipPath2)" stroke="none">sharing</text>
      <text x="143.9945" xml:space="preserve" y="572.5082" font-family="sans-serif" clip-path="url(#clipPath2)" stroke="none">strategies</text>
      <path fill="none" d="M260.7756 697.9941 L259.8465 695.4988 L254.8884 678.5996 L248.8257 646.4844 L246.53 616.4082 L246.3561 588.125 L246.6589 561.3887 L245.7932 535.9531 L242.1138 511.5723 L241.8582 510.6823" clip-path="url(#clipPath2)"/>
      <path d="M239.6503 502.993 L238.1564 515.9069 L242.1342 511.6435 L247.768 513.147 Z" clip-path="url(#clipPath2)" stroke="none"/>
      <rect x="227.3123" y="611.1831" clip-path="url(#clipPath2)" fill="white" width="48.7012" height="31.9375" stroke="none"/>
      <text x="229.3123" xml:space="preserve" y="624.3238" font-family="sans-serif" clip-path="url(#clipPath2)" stroke="none">sharing</text>
      <text x="233.3377" xml:space="preserve" y="638.2925" font-family="sans-serif" clip-path="url(#clipPath2)" stroke="none">states</text>
      <path fill="none" d="M392.4507 577.9605 L394.2279 585.5952 L396.3652 604.3085 L395.6719 619.219 L392.44 630.4058 L386.9614 637.9478 L379.5279 641.9241 L370.4314 642.4138 L359.9638 639.4959 L348.4171 633.2495 L336.0831 623.7537 L323.2537 611.0875 L310.2208 595.3299 L297.2763 576.56 L284.712 554.8569 L272.8199 530.2996 L264.8726 510.4221" clip-path="url(#clipPath2)"/>
      <path d="M261.9026 502.9938 L261.7149 515.9925 L265.2438 511.3506 L271.0002 512.28 Z" clip-path="url(#clipPath2)" stroke="none"/>
      <rect x="320.2478" y="615.2803" clip-path="url(#clipPath2)" fill="white" width="102.8535" height="31.9375" stroke="none"/>
      <text x="322.2478" xml:space="preserve" y="628.4209" font-family="sans-serif" clip-path="url(#clipPath2)" stroke="none">sharing terminal</text>
      <text x="346.8806" xml:space="preserve" y="642.3896" font-family="sans-serif" clip-path="url(#clipPath2)" stroke="none">symbols</text>
      <path fill="none" d="M273.5115 351.4812 L234.6578 346.7344 L169.9723 342.375 L145.8167 342.1465 L127.6178 343.0781 L115.7492 345.0645 L110.585 348 L108.2158 354.1406 L108.5067 363.375 L115.6655 394.2039" clip-path="url(#clipPath2)"/>
      <path d="M117.475 401.9965 L119.6311 389.1766 L115.4393 393.2298 L109.8903 391.4385 Z" clip-path="url(#clipPath2)" stroke="none"/>
      <rect x="80.0039" y="317.7433" clip-path="url(#clipPath2)" fill="white" width="94.0117" height="45.9062" stroke="none"/>
      <text x="106.4375" xml:space="preserve" y="330.8839" font-family="sans-serif" clip-path="url(#clipPath2)" stroke="none">adding</text>
      <text x="82.0039" xml:space="preserve" y="344.8526" font-family="sans-serif" clip-path="url(#clipPath2)" stroke="none">responsibilities</text>
      <text x="97.4638" xml:space="preserve" y="358.8214" font-family="sans-serif" clip-path="url(#clipPath2)" stroke="none">to objects</text>
      <path fill="none" d="M120.3715 431.9715 L117.8341 496.6406 L117.9873 544.125 L119.6293 561.6973 L122.494 578.2969 L126.7326 595.2343" clip-path="url(#clipPath2)"/>
      <path d="M128.6747 602.995 L130.612 590.1401 L126.4899 594.2642 L120.9111 592.5677 Z" clip-path="url(#clipPath2)" stroke="none"/>
      <rect x="76.686" y="485.0825" clip-path="url(#clipPath2)" fill="white" width="87.291" height="31.9375" stroke="none"/>
      <text x="78.686" xml:space="preserve" y="498.2231" font-family="sans-serif" clip-path="url(#clipPath2)" stroke="none">changing skin</text>
      <text x="85.5708" xml:space="preserve" y="512.1918" font-family="sans-serif" clip-path="url(#clipPath2)" stroke="none">versus guts</text>
      <path fill="none" d="M378.813 751.0001 L363.4716 753.6111 L340.3248 756.0781 L317.9199 757.1682 L296.4146 757.0762 L256.7347 754.125 L222.5485 748.7832 L195.1193 742.6094 L165.585 734 L160.4718 729.7129 L155.3518 720.5156 L150.3669 707.4043 L145.6587 691.375 L137.6399 654.5469 L135.7008 640.9456" clip-path="url(#clipPath2)"/>
      <path d="M134.5718 633.0256 L131.3154 645.6112 L135.842 641.9355 L141.2153 644.1998 Z" clip-path="url(#clipPath2)" stroke="none"/>
      <rect x="124.3525" y="706.0469" clip-path="url(#clipPath2)" fill="white" width="71.4648" height="45.9062" stroke="none"/>
      <text x="135.7246" xml:space="preserve" y="719.1875" font-family="sans-serif" clip-path="url(#clipPath2)" stroke="none">defining</text>
      <text x="126.3525" xml:space="preserve" y="733.1562" font-family="sans-serif" clip-path="url(#clipPath2)" stroke="none">algorithm's</text>
      <text x="143.9805" xml:space="preserve" y="747.125" font-family="sans-serif" clip-path="url(#clipPath2)" stroke="none">steps</text>
      <path fill="none" d="M334.1865 371.9892 L368.2155 404.8906 L387.3585 420.6152 L405.9338 432.625 L426.3276 442.2441 L450.9255 450.7969 L481.8377 459.1164" clip-path="url(#clipPath2)"/>
      <path d="M489.5628 461.1954 L479.2746 453.2486 L480.872 458.8565 L476.6757 462.905 Z" clip-path="url(#clipPath2)" stroke="none"/>
      <rect x="372.5925" y="406.6597" clip-path="url(#clipPath2)" fill="white" width="67.8672" height="31.9375" stroke="none"/>
      <text x="385.9538" xml:space="preserve" y="419.8004" font-family="sans-serif" clip-path="url(#clipPath2)" stroke="none">adding</text>
      <text x="374.5925" xml:space="preserve" y="433.7691" font-family="sans-serif" clip-path="url(#clipPath2)" stroke="none">operations</text>
      <path fill="none" d="M701.0467 621.0253 L694.7494 609.6074 L681.9982 589.8594 L675.5972 582.2097 L668.805 575.9004 L661.3406 570.8245 L652.9231 566.875 L643.2717 563.9451 L632.1055 561.9277 L604.1052 560.2031 L566.6755 560.8457 L564.5493 560.939" clip-path="url(#clipPath2)"/>
      <path d="M556.5569 561.2895 L568.7645 565.7589 L565.5483 560.8951 L568.3263 555.7684 Z" clip-path="url(#clipPath2)" stroke="none"/>
      <rect x="613.0984" y="543.4068" clip-path="url(#clipPath2)" fill="white" width="84.3848" height="45.9062" stroke="none"/>
      <text x="629.7585" xml:space="preserve" y="556.5475" font-family="sans-serif" clip-path="url(#clipPath2)" stroke="none">complex</text>
      <text x="618.3357" xml:space="preserve" y="570.5162" font-family="sans-serif" clip-path="url(#clipPath2)" stroke="none">dependency</text>
      <text x="615.0984" xml:space="preserve" y="584.485" font-family="sans-serif" clip-path="url(#clipPath2)" stroke="none">management</text>
      <path fill="none" d="M535.9013 857.9993 L539.7613 854.9922 L564.7232 839.9375 L616.866 814 L642.3857 800.7734 L666.4302 785.8125 L677.6398 777.3154 L688.169 767.9453 L689.2245 766.82" clip-path="url(#clipPath2)"/>
      <path d="M694.6976 760.9852 L682.8412 766.3167 L688.5404 767.5494 L690.1348 773.1581 Z" clip-path="url(#clipPath2)" stroke="none"/>
      <rect x="593.7148" y="793.0312" clip-path="url(#clipPath2)" fill="white" width="68.7402" height="31.9375" stroke="none"/>
      <text x="595.7148" xml:space="preserve" y="806.1719" font-family="sans-serif" clip-path="url(#clipPath2)" stroke="none">implement</text>
      <text x="611.8779" xml:space="preserve" y="820.1406" font-family="sans-serif" clip-path="url(#clipPath2)" stroke="none">using</text>
      <path fill="none" d="M504.5761 733.8586 L539.1871 732.7812 L601.8831 732.75 L625.9046 734.2227 L636.533 735.4146" clip-path="url(#clipPath2)"/>
      <path d="M644.4832 736.3062 L633.1152 730 L635.5392 735.3032 L632.0007 739.9377 Z" clip-path="url(#clipPath2)" stroke="none"/>
      <rect x="524.8107" y="722.2393" clip-path="url(#clipPath2)" fill="white" width="66.5664" height="17.9688" stroke="none"/>
      <text x="526.8107" xml:space="preserve" y="735.3799" font-family="sans-serif" clip-path="url(#clipPath2)" stroke="none">often uses</text>
      <path fill="none" d="M483.275 857.9995 L475.5244 854.5156 L442.5155 840.625 L414.149 830.6719 L386.9543 824 L357.4607 819.9531 L322.1973 817.875 L271.2418 817.4366" clip-path="url(#clipPath2)"/>
      <path d="M263.2421 817.3678 L275.1987 822.4708 L272.2418 817.4452 L275.2847 812.4712 Z" clip-path="url(#clipPath2)" stroke="none"/>
      <rect x="332.5026" y="809.9315" clip-path="url(#clipPath2)" fill="white" width="106.7148" height="31.9375" stroke="none"/>
      <text x="334.5026" xml:space="preserve" y="823.0721" font-family="sans-serif" clip-path="url(#clipPath2)" stroke="none">configure factory</text>
      <text x="349.6491" xml:space="preserve" y="837.0409" font-family="sans-serif" clip-path="url(#clipPath2)" stroke="none">dynamically</text>
      <path fill="none" d="M450.849 873.1166 L445.0073 873.127 L390.191 874.0156 L348.7179 876.4277 L317.1082 881.125 L303.9148 884.5686 L291.8823 888.8691 L269.5603 900.4219 L246.6626 916.5449 L244.7884 918.0368" clip-path="url(#clipPath2)"/>
      <path d="M238.5293 923.0191 L251.0319 919.4576 L245.5708 917.4141 L244.804 911.6337 Z" clip-path="url(#clipPath2)" stroke="none"/>
      <rect x="323.9971" y="867.0156" clip-path="url(#clipPath2)" fill="white" width="94.1758" height="17.9688" stroke="none"/>
      <text x="325.9971" xml:space="preserve" y="880.1562" font-family="sans-serif" clip-path="url(#clipPath2)" stroke="none">single instance</text>
      <path fill="none" d="M464.1458 976.6606 L407.6304 961.0625 L375.8023 953.2344 L348.5255 947.75 L322.5388 944.0469 L294.5812 941.5625 L269.7061 940.3789" clip-path="url(#clipPath2)"/>
      <path d="M261.7152 939.9987 L273.464 945.5634 L270.705 940.4264 L273.9393 935.5746 Z" clip-path="url(#clipPath2)" stroke="none"/>
      <rect x="334.9971" y="947.0156" clip-path="url(#clipPath2)" fill="white" width="94.1758" height="17.9688" stroke="none"/>
      <text x="336.9971" xml:space="preserve" y="960.1562" font-family="sans-serif" clip-path="url(#clipPath2)" stroke="none">single instance</text>
    </g>
    <g fill="rgb(245,245,245)" transform="matrix(1,0,0,1,-74,-133)" stroke="rgb(245,245,245)">
      <rect x="79.5684" y="1068.8906" clip-path="url(#clipPath2)" width="284.3184" rx="4" ry="4" height="156.1094" stroke="none"/>
      <rect x="79.5684" y="1068.8906" clip-path="url(#clipPath2)" fill="rgb(235,235,235)" width="284.3184" height="26.1094" stroke="none"/>
    </g>
    <g font-size="22" stroke-miterlimit="1.45" font-family="'Dobkin'" transform="matrix(1,0,0,1,-74,-133)" stroke-linecap="butt">
      <text x="140.5363" xml:space="preserve" y="1086.8594" clip-path="url(#clipPath2)" stroke="none">Taxonomy  1 ( GoF )</text>
      <rect x="79.5684" y="1068.8906" clip-path="url(#clipPath2)" fill="none" width="284.3184" stroke-dasharray="6,2" rx="4" ry="4" height="156.1094"/>
    </g>
    <g fill="rgb(138,173,106)" transform="matrix(1,0,0,1,-74,-133)" stroke="rgb(138,173,106)">
      <rect x="94.5684" width="73.3906" height="30" y="1180" clip-path="url(#clipPath2)" stroke="none"/>
    </g>
    <g stroke-miterlimit="1.45" font-family="sans-serif" transform="matrix(1,0,0,1,-74,-133)" stroke-linecap="butt">
      <text x="101.5684" xml:space="preserve" y="1199.1562" clip-path="url(#clipPath2)" stroke="none">Structural</text>
      <rect fill="none" x="94.5684" width="73.3906" height="30" y="1180" clip-path="url(#clipPath2)"/>
    </g>
    <g fill="rgb(199,82,51)" transform="matrix(1,0,0,1,-74,-133)" stroke="rgb(199,82,51)">
      <rect x="94.5684" width="85.5781" height="30" y="1110" clip-path="url(#clipPath2)" stroke="none"/>
    </g>
    <g stroke-miterlimit="1.45" font-family="sans-serif" transform="matrix(1,0,0,1,-74,-133)" stroke-linecap="butt">
      <text x="101.5684" xml:space="preserve" y="1129.1562" clip-path="url(#clipPath2)" stroke="none">Behavioural</text>
      <rect fill="none" x="94.5684" width="85.5781" height="30" y="1110" clip-path="url(#clipPath2)"/>
    </g>
    <g fill="rgb(32,79,197)" transform="matrix(1,0,0,1,-74,-133)" stroke="rgb(32,79,197)">
      <rect x="94.5684" width="75.7227" height="30" y="1145" clip-path="url(#clipPath2)" stroke="none"/>
    </g>
    <g stroke-miterlimit="1.45" font-family="sans-serif" transform="matrix(1,0,0,1,-74,-133)" stroke-linecap="butt">
      <text x="101.5684" xml:space="preserve" y="1164.1562" clip-path="url(#clipPath2)" stroke="none">Creational</text>
      <rect fill="none" x="94.5684" width="75.7227" height="30" y="1145" clip-path="url(#clipPath2)"/>
    </g>
    <g fill="rgb(245,245,245)" transform="matrix(1,0,0,1,-74,-133)" stroke="rgb(245,245,245)">
      <rect x="375.5801" y="1068.8906" clip-path="url(#clipPath2)" width="207.5488" rx="4" ry="4" height="156.1094" stroke="none"/>
      <rect x="375.5801" y="1068.8906" clip-path="url(#clipPath2)" fill="rgb(235,235,235)" width="207.5488" height="26.1094" stroke="none"/>
    </g>
    <g font-size="22" stroke-miterlimit="1.45" font-family="'Dobkin'" transform="matrix(1,0,0,1,-74,-133)" stroke-linecap="butt">
      <text x="431.1743" xml:space="preserve" y="1086.8594" clip-path="url(#clipPath2)" stroke="none">Taxonomy  2</text>
      <rect x="375.5801" y="1068.8906" clip-path="url(#clipPath2)" fill="none" width="207.5488" stroke-dasharray="6,2" rx="4" ry="4" height="156.1094"/>
    </g>
    <g fill="rgb(214,206,170)" transform="matrix(1,0,0,1,-74,-133)" stroke="rgb(214,206,170)">
      <rect x="464.2988" width="72.9102" height="30" y="1180" clip-path="url(#clipPath2)" stroke="none"/>
    </g>
    <g stroke-miterlimit="1.45" font-family="sans-serif" transform="matrix(1,0,0,1,-74,-133)" stroke-linecap="butt">
      <text x="471.2988" xml:space="preserve" y="1199.1562" clip-path="url(#clipPath2)" stroke="none">Extension</text>
      <rect fill="none" x="464.2988" width="72.9102" height="30" y="1180" clip-path="url(#clipPath2)"/>
    </g>
    <g fill="rgb(180,105,142)" transform="matrix(1,0,0,1,-74,-133)" stroke="rgb(180,105,142)">
      <rect x="390.5801" width="73.7188" height="30" y="1110" clip-path="url(#clipPath2)" stroke="none"/>
    </g>
    <g stroke-miterlimit="1.45" font-family="sans-serif" transform="matrix(1,0,0,1,-74,-133)" stroke-linecap="butt">
      <text x="397.5801" xml:space="preserve" y="1129.1562" clip-path="url(#clipPath2)" stroke="none">Operation</text>
      <rect fill="none" x="390.5801" width="73.7188" height="30" y="1110" clip-path="url(#clipPath2)"/>
    </g>
    <g fill="rgb(199,137,51)" transform="matrix(1,0,0,1,-74,-133)" stroke="rgb(199,137,51)">
      <rect x="470.5801" width="97.5488" height="30" y="1110" clip-path="url(#clipPath2)" stroke="none"/>
    </g>
    <g stroke-miterlimit="1.45" font-family="sans-serif" transform="matrix(1,0,0,1,-74,-133)" stroke-linecap="butt">
      <text x="477.5801" xml:space="preserve" y="1129.1562" clip-path="url(#clipPath2)" stroke="none">Responsibility</text>
      <rect fill="none" x="470.5801" width="97.5488" height="30" y="1110" clip-path="url(#clipPath2)"/>
    </g>
    <g fill="rgb(97,154,197)" transform="matrix(1,0,0,1,-74,-133)" stroke="rgb(97,154,197)">
      <rect x="390.5801" width="90.4062" height="30" y="1145" clip-path="url(#clipPath2)" stroke="none"/>
    </g>
    <g stroke-miterlimit="1.45" font-family="sans-serif" transform="matrix(1,0,0,1,-74,-133)" stroke-linecap="butt">
      <text x="397.5801" xml:space="preserve" y="1164.1562" clip-path="url(#clipPath2)" stroke="none">Construction</text>
      <rect fill="none" x="390.5801" width="90.4062" height="30" y="1145" clip-path="url(#clipPath2)"/>
    </g>
    <g fill="rgb(182,204,162)" transform="matrix(1,0,0,1,-74,-133)" stroke="rgb(182,204,162)">
      <rect x="390.9844" width="67.7246" height="30" y="1180" clip-path="url(#clipPath2)" stroke="none"/>
    </g>
    <g stroke-miterlimit="1.45" font-family="sans-serif" transform="matrix(1,0,0,1,-74,-133)" stroke-linecap="butt">
      <text x="397.9844" xml:space="preserve" y="1199.1562" clip-path="url(#clipPath2)" stroke="none">Interface</text>
      <rect fill="none" x="390.9844" width="67.7246" height="30" y="1180" clip-path="url(#clipPath2)"/>
    </g>
    <g fill="rgb(32,79,197)" transform="matrix(1,0,0,1,-74,-133)" stroke="rgb(32,79,197)">
      <rect x="141.5605" y="222" clip-path="url(#clipPath2)" width="69.0488" rx="4" ry="4" height="30" stroke="none"/>
      <rect x="149.8037" y="228.0156" clip-path="url(#clipPath2)" fill="rgb(97,154,197)" width="52.5625" height="17.9688" stroke="none"/>
      <rect x="149.8037" y="228.0156" clip-path="url(#clipPath2)" fill="none" width="52.5625" height="17.9688" stroke="black" stroke-miterlimit="1.6"/>
    </g>
    <g stroke-miterlimit="1.45" font-weight="bold" font-family="sans-serif" transform="matrix(1,0,0,1,-74,-133)" stroke-linecap="butt">
      <text x="151.8037" xml:space="preserve" y="241.1562" clip-path="url(#clipPath2)" stroke="none">Builder</text>
      <rect x="141.5605" y="222" clip-path="url(#clipPath2)" fill="none" width="69.0488" rx="4" ry="4" height="30"/>
    </g>
    <g fill="rgb(138,173,106)" transform="matrix(1,0,0,1,-74,-133)" stroke="rgb(138,173,106)">
      <rect x="273.4805" y="342" clip-path="url(#clipPath2)" width="90.4062" rx="4" ry="4" height="30" stroke="none"/>
      <rect x="280.9238" y="348.0156" clip-path="url(#clipPath2)" fill="rgb(182,204,162)" width="75.5195" height="17.9688" stroke="none"/>
      <rect x="280.9238" y="348.0156" clip-path="url(#clipPath2)" fill="none" width="75.5195" height="17.9688" stroke="black" stroke-miterlimit="1.6"/>
    </g>
    <g stroke-miterlimit="1.45" font-weight="bold" font-family="sans-serif" transform="matrix(1,0,0,1,-74,-133)" stroke-linecap="butt">
      <text x="282.9238" xml:space="preserve" y="361.1562" clip-path="url(#clipPath2)" stroke="none">Composite</text>
      <rect x="273.4805" y="342" clip-path="url(#clipPath2)" fill="none" width="90.4062" rx="4" ry="4" height="30"/>
    </g>
    <g fill="rgb(199,82,51)" transform="matrix(1,0,0,1,-74,-133)" stroke="rgb(199,82,51)">
      <rect x="393.9756" y="222" clip-path="url(#clipPath2)" width="74.5566" rx="4" ry="4" height="30" stroke="none"/>
      <rect x="403.127" y="228.0156" clip-path="url(#clipPath2)" fill="rgb(214,206,170)" width="56.2539" height="17.9688" stroke="none"/>
      <rect x="403.127" y="228.0156" clip-path="url(#clipPath2)" fill="none" width="56.2539" height="17.9688" stroke="black" stroke-miterlimit="1.6"/>
    </g>
    <g stroke-miterlimit="1.45" font-weight="bold" font-family="sans-serif" transform="matrix(1,0,0,1,-74,-133)" stroke-linecap="butt">
      <text x="405.127" xml:space="preserve" y="241.1562" clip-path="url(#clipPath2)" stroke="none">Iterator</text>
      <rect x="393.9756" y="222" clip-path="url(#clipPath2)" fill="none" width="74.5566" rx="4" ry="4" height="30"/>
    </g>
    <g fill="rgb(199,82,51)" transform="matrix(1,0,0,1,-74,-133)" stroke="rgb(199,82,51)">
      <rect x="449.8545" y="135" clip-path="url(#clipPath2)" width="78.043" rx="4" ry="4" height="30" stroke="none"/>
      <rect x="455.2529" y="141.0156" clip-path="url(#clipPath2)" fill="rgb(97,154,197)" width="67.2461" height="17.9688" stroke="none"/>
      <rect x="455.2529" y="141.0156" clip-path="url(#clipPath2)" fill="none" width="67.2461" height="17.9688" stroke="black" stroke-miterlimit="1.6"/>
    </g>
    <g stroke-miterlimit="1.45" font-weight="bold" font-family="sans-serif" transform="matrix(1,0,0,1,-74,-133)" stroke-linecap="butt">
      <text x="457.2529" xml:space="preserve" y="154.1562" clip-path="url(#clipPath2)" stroke="none">Memento</text>
      <rect x="449.8545" y="135" clip-path="url(#clipPath2)" fill="none" width="78.043" rx="4" ry="4" height="30"/>
    </g>
    <g fill="rgb(138,173,106)" transform="matrix(1,0,0,1,-74,-133)" stroke="rgb(138,173,106)">
      <rect x="191.1865" y="473" clip-path="url(#clipPath2)" width="85.5781" rx="4" ry="4" height="30" stroke="none"/>
      <rect x="198.8057" y="479.0156" clip-path="url(#clipPath2)" fill="rgb(199,137,51)" width="70.3398" height="17.9688" stroke="none"/>
      <rect x="198.8057" y="479.0156" clip-path="url(#clipPath2)" fill="none" width="70.3398" height="17.9688" stroke="black" stroke-miterlimit="1.6"/>
    </g>
    <g stroke-miterlimit="1.45" font-weight="bold" font-family="sans-serif" transform="matrix(1,0,0,1,-74,-133)" stroke-linecap="butt">
      <text x="200.8057" xml:space="preserve" y="492.1562" clip-path="url(#clipPath2)" stroke="none">Flyweight</text>
      <rect x="191.1865" y="473" clip-path="url(#clipPath2)" fill="none" width="85.5781" rx="4" ry="4" height="30"/>
    </g>
    <g fill="rgb(138,173,106)" transform="matrix(1,0,0,1,-74,-133)" stroke="rgb(138,173,106)">
      <rect x="78.1699" y="402" clip-path="url(#clipPath2)" width="85.5781" rx="4" ry="4" height="30" stroke="none"/>
      <rect x="85.2734" y="408.0156" clip-path="url(#clipPath2)" fill="rgb(214,206,170)" width="71.3711" height="17.9688" stroke="none"/>
      <rect x="85.2734" y="408.0156" clip-path="url(#clipPath2)" fill="none" width="71.3711" height="17.9688" stroke="black" stroke-miterlimit="1.6"/>
    </g>
    <g stroke-miterlimit="1.45" font-weight="bold" font-family="sans-serif" transform="matrix(1,0,0,1,-74,-133)" stroke-linecap="butt">
      <text x="87.2734" xml:space="preserve" y="421.1562" clip-path="url(#clipPath2)" stroke="none">Decorator</text>
      <rect x="78.1699" y="402" clip-path="url(#clipPath2)" fill="none" width="85.5781" rx="4" ry="4" height="30"/>
    </g>
    <g fill="rgb(199,82,51)" transform="matrix(1,0,0,1,-74,-133)" stroke="rgb(199,82,51)">
      <rect x="95.1514" y="603" clip-path="url(#clipPath2)" width="74.5566" rx="4" ry="4" height="30" stroke="none"/>
      <rect x="101.0889" y="609.0156" clip-path="url(#clipPath2)" fill="rgb(180,105,142)" width="62.6816" height="17.9688" stroke="none"/>
      <rect x="101.0889" y="609.0156" clip-path="url(#clipPath2)" fill="none" width="62.6816" height="17.9688" stroke="black" stroke-miterlimit="1.6"/>
    </g>
    <g stroke-miterlimit="1.45" font-weight="bold" font-family="sans-serif" transform="matrix(1,0,0,1,-74,-133)" stroke-linecap="butt">
      <text x="103.0889" xml:space="preserve" y="622.1562" clip-path="url(#clipPath2)" stroke="none">Strategy</text>
      <rect x="95.1514" y="603" clip-path="url(#clipPath2)" fill="none" width="74.5566" rx="4" ry="4" height="30"/>
    </g>
    <g fill="rgb(199,82,51)" transform="matrix(1,0,0,1,-74,-133)" stroke="rgb(199,82,51)">
      <rect x="342.5244" y="548" clip-path="url(#clipPath2)" width="92.8877" rx="4" ry="4" height="30" stroke="none"/>
      <rect x="349.3481" y="554.0156" clip-path="url(#clipPath2)" fill="rgb(180,105,142)" width="79.2402" height="17.9688" stroke="none"/>
      <rect x="349.3481" y="554.0156" clip-path="url(#clipPath2)" fill="none" width="79.2402" height="17.9688" stroke="black" stroke-miterlimit="1.6"/>
    </g>
    <g stroke-miterlimit="1.45" font-weight="bold" font-family="sans-serif" transform="matrix(1,0,0,1,-74,-133)" stroke-linecap="butt">
      <text x="351.3481" xml:space="preserve" y="567.1562" clip-path="url(#clipPath2)" stroke="none">Interpreter</text>
      <rect x="342.5244" y="548" clip-path="url(#clipPath2)" fill="none" width="92.8877" rx="4" ry="4" height="30"/>
    </g>
    <g fill="rgb(199,82,51)" transform="matrix(1,0,0,1,-74,-133)" stroke="rgb(199,82,51)">
      <rect x="237.7598" y="698" clip-path="url(#clipPath2)" width="57.207" rx="4" ry="4" height="30" stroke="none"/>
      <rect x="246.1875" y="704.0156" clip-path="url(#clipPath2)" fill="rgb(180,105,142)" width="40.3516" height="17.9688" stroke="none"/>
      <rect x="246.1875" y="704.0156" clip-path="url(#clipPath2)" fill="none" width="40.3516" height="17.9688" stroke="black" stroke-miterlimit="1.6"/>
    </g>
    <g stroke-miterlimit="1.45" font-weight="bold" font-family="sans-serif" transform="matrix(1,0,0,1,-74,-133)" stroke-linecap="butt">
      <text x="248.1875" xml:space="preserve" y="717.1562" clip-path="url(#clipPath2)" stroke="none">State</text>
      <rect x="237.7598" y="698" clip-path="url(#clipPath2)" fill="none" width="57.207" rx="4" ry="4" height="30"/>
    </g>
    <g fill="rgb(199,82,51)" transform="matrix(1,0,0,1,-74,-133)" stroke="rgb(199,82,51)">
      <rect x="489.5693" y="455" clip-path="url(#clipPath2)" width="65.416" rx="4" ry="4" height="30" stroke="none"/>
      <rect x="498" y="461.0156" clip-path="url(#clipPath2)" fill="rgb(214,206,170)" width="48.5547" height="17.9688" stroke="none"/>
      <rect x="498" y="461.0156" clip-path="url(#clipPath2)" fill="none" width="48.5547" height="17.9688" stroke="black" stroke-miterlimit="1.6"/>
    </g>
    <g stroke-miterlimit="1.45" font-weight="bold" font-family="sans-serif" transform="matrix(1,0,0,1,-74,-133)" stroke-linecap="butt">
      <text x="500" xml:space="preserve" y="474.1562" clip-path="url(#clipPath2)" stroke="none">Visitor</text>
      <rect x="489.5693" y="455" clip-path="url(#clipPath2)" fill="none" width="65.416" rx="4" ry="4" height="30"/>
    </g>
    <g fill="rgb(199,82,51)" transform="matrix(1,0,0,1,-74,-133)" stroke="rgb(199,82,51)">
      <rect x="639.2705" y="325" clip-path="url(#clipPath2)" width="85.5781" rx="4" ry="4" height="30" stroke="none"/>
      <rect x="646.415" y="331.0156" clip-path="url(#clipPath2)" fill="rgb(180,105,142)" width="71.2891" height="17.9688" stroke="none"/>
      <rect x="646.415" y="331.0156" clip-path="url(#clipPath2)" fill="none" width="71.2891" height="17.9688" stroke="black" stroke-miterlimit="1.6"/>
    </g>
    <g stroke-miterlimit="1.45" font-weight="bold" font-family="sans-serif" transform="matrix(1,0,0,1,-74,-133)" stroke-linecap="butt">
      <text x="648.415" xml:space="preserve" y="344.1562" clip-path="url(#clipPath2)" stroke="none">Command</text>
      <rect x="639.2705" y="325" clip-path="url(#clipPath2)" fill="none" width="85.5781" rx="4" ry="4" height="30"/>
    </g>
    <g fill="rgb(138,173,106)" transform="matrix(1,0,0,1,-74,-133)" stroke="rgb(138,173,106)">
      <rect x="711.7725" y="240" clip-path="url(#clipPath2)" width="70.543" rx="4" ry="4" height="30" stroke="none"/>
      <rect x="722.7959" y="246.0156" clip-path="url(#clipPath2)" fill="rgb(182,204,162)" width="48.4961" height="17.9688" stroke="none"/>
      <rect x="722.7959" y="246.0156" clip-path="url(#clipPath2)" fill="none" width="48.4961" height="17.9688" stroke="black" stroke-miterlimit="1.6"/>
    </g>
    <g stroke-miterlimit="1.45" font-weight="bold" font-family="sans-serif" transform="matrix(1,0,0,1,-74,-133)" stroke-linecap="butt">
      <text x="724.7959" xml:space="preserve" y="259.1562" clip-path="url(#clipPath2)" stroke="none">Bridge</text>
      <rect x="711.7725" y="240" clip-path="url(#clipPath2)" fill="none" width="70.543" rx="4" ry="4" height="30"/>
    </g>
    <g fill="rgb(138,173,106)" transform="matrix(1,0,0,1,-74,-133)" stroke="rgb(138,173,106)">
      <rect x="616.8311" y="203" clip-path="url(#clipPath2)" width="72.9102" rx="4" ry="4" height="30" stroke="none"/>
      <rect x="624.1074" y="209.0156" clip-path="url(#clipPath2)" fill="rgb(182,204,162)" width="58.3574" height="17.9688" stroke="none"/>
      <rect x="624.1074" y="209.0156" clip-path="url(#clipPath2)" fill="none" width="58.3574" height="17.9688" stroke="black" stroke-miterlimit="1.6"/>
    </g>
    <g stroke-miterlimit="1.45" font-weight="bold" font-family="sans-serif" transform="matrix(1,0,0,1,-74,-133)" stroke-linecap="butt">
      <text x="626.1074" xml:space="preserve" y="222.1562" clip-path="url(#clipPath2)" stroke="none">Adapter</text>
      <rect x="616.8311" y="203" clip-path="url(#clipPath2)" fill="none" width="72.9102" rx="4" ry="4" height="30"/>
    </g>
    <g fill="rgb(138,173,106)" transform="matrix(1,0,0,1,-74,-133)" stroke="rgb(138,173,106)">
      <rect x="714.3359" y="171" clip-path="url(#clipPath2)" width="65.416" rx="4" ry="4" height="30" stroke="none"/>
      <rect x="725.7842" y="177.0156" clip-path="url(#clipPath2)" fill="rgb(199,137,51)" width="42.5195" height="17.9688" stroke="none"/>
      <rect x="725.7842" y="177.0156" clip-path="url(#clipPath2)" fill="none" width="42.5195" height="17.9688" stroke="black" stroke-miterlimit="1.6"/>
    </g>
    <g stroke-miterlimit="1.45" font-weight="bold" font-family="sans-serif" transform="matrix(1,0,0,1,-74,-133)" stroke-linecap="butt">
      <text x="727.7842" xml:space="preserve" y="190.1562" clip-path="url(#clipPath2)" stroke="none">Proxy</text>
      <rect x="714.3359" y="171" clip-path="url(#clipPath2)" fill="none" width="65.416" rx="4" ry="4" height="30"/>
    </g>
    <g fill="rgb(199,82,51)" transform="matrix(1,0,0,1,-74,-133)" stroke="rgb(199,82,51)">
      <rect x="601.8311" y="473" clip-path="url(#clipPath2)" width="173.0215" rx="4" ry="4" height="30" stroke="none"/>
      <rect x="608.5586" y="479.0156" clip-path="url(#clipPath2)" fill="rgb(199,137,51)" width="159.5664" height="17.9688" stroke="none"/>
      <rect x="608.5586" y="479.0156" clip-path="url(#clipPath2)" fill="none" width="159.5664" height="17.9688" stroke="black" stroke-miterlimit="1.6"/>
    </g>
    <g stroke-miterlimit="1.45" font-weight="bold" font-family="sans-serif" transform="matrix(1,0,0,1,-74,-133)" stroke-linecap="butt">
      <text x="610.5586" xml:space="preserve" y="492.1562" clip-path="url(#clipPath2)" stroke="none">Chain of Responsibility</text>
      <rect x="601.8311" y="473" clip-path="url(#clipPath2)" fill="none" width="173.0215" rx="4" ry="4" height="30"/>
    </g>
    <g fill="rgb(199,82,51)" transform="matrix(1,0,0,1,-74,-133)" stroke="rgb(199,82,51)">
      <rect x="669.7451" y="621" clip-path="url(#clipPath2)" width="79.1211" rx="4" ry="4" height="30" stroke="none"/>
      <rect x="676.3711" y="627.0156" clip-path="url(#clipPath2)" fill="rgb(199,137,51)" width="65.8691" height="17.9688" stroke="none"/>
      <rect x="676.3711" y="627.0156" clip-path="url(#clipPath2)" fill="none" width="65.8691" height="17.9688" stroke="black" stroke-miterlimit="1.6"/>
    </g>
    <g stroke-miterlimit="1.45" font-weight="bold" font-family="sans-serif" transform="matrix(1,0,0,1,-74,-133)" stroke-linecap="butt">
      <text x="678.3711" xml:space="preserve" y="640.1562" clip-path="url(#clipPath2)" stroke="none">Observer</text>
      <rect x="669.7451" y="621" clip-path="url(#clipPath2)" fill="none" width="79.1211" rx="4" ry="4" height="30"/>
    </g>
    <g fill="rgb(199,82,51)" transform="matrix(1,0,0,1,-74,-133)" stroke="rgb(199,82,51)">
      <rect x="478.5479" y="548" clip-path="url(#clipPath2)" width="78.043" rx="4" ry="4" height="30" stroke="none"/>
      <rect x="485.1797" y="554.0156" clip-path="url(#clipPath2)" fill="rgb(199,137,51)" width="64.7793" height="17.9688" stroke="none"/>
      <rect x="485.1797" y="554.0156" clip-path="url(#clipPath2)" fill="none" width="64.7793" height="17.9688" stroke="black" stroke-miterlimit="1.6"/>
    </g>
    <g stroke-miterlimit="1.45" font-weight="bold" font-family="sans-serif" transform="matrix(1,0,0,1,-74,-133)" stroke-linecap="butt">
      <text x="487.1797" xml:space="preserve" y="567.1562" clip-path="url(#clipPath2)" stroke="none">Mediator</text>
      <rect x="478.5479" y="548" clip-path="url(#clipPath2)" fill="none" width="78.043" rx="4" ry="4" height="30"/>
    </g>
    <g fill="rgb(199,82,51)" transform="matrix(1,0,0,1,-74,-133)" stroke="rgb(199,82,51)">
      <rect x="366.9756" y="721" clip-path="url(#clipPath2)" width="137.6152" rx="4" ry="4" height="30" stroke="none"/>
      <rect x="374.3457" y="727.0156" clip-path="url(#clipPath2)" fill="rgb(180,105,142)" width="122.875" height="17.9688" stroke="none"/>
      <rect x="374.3457" y="727.0156" clip-path="url(#clipPath2)" fill="none" width="122.875" height="17.9688" stroke="black" stroke-miterlimit="1.6"/>
    </g>
    <g stroke-miterlimit="1.45" font-weight="bold" font-family="sans-serif" transform="matrix(1,0,0,1,-74,-133)" stroke-linecap="butt">
      <text x="376.3457" xml:space="preserve" y="740.1562" clip-path="url(#clipPath2)" stroke="none">Template Method</text>
      <rect x="366.9756" y="721" clip-path="url(#clipPath2)" fill="none" width="137.6152" rx="4" ry="4" height="30"/>
    </g>
    <g fill="rgb(32,79,197)" transform="matrix(1,0,0,1,-74,-133)" stroke="rgb(32,79,197)">
      <rect x="644.4639" y="731" clip-path="url(#clipPath2)" width="124.6152" rx="4" ry="4" height="30" stroke="none"/>
      <rect x="651.5215" y="737.0156" clip-path="url(#clipPath2)" fill="rgb(97,154,197)" width="110.5" height="17.9688" stroke="none"/>
      <rect x="651.5215" y="737.0156" clip-path="url(#clipPath2)" fill="none" width="110.5" height="17.9688" stroke="black" stroke-miterlimit="1.6"/>
    </g>
    <g stroke-miterlimit="1.45" font-weight="bold" font-family="sans-serif" transform="matrix(1,0,0,1,-74,-133)" stroke-linecap="butt">
      <text x="653.5215" xml:space="preserve" y="750.1562" clip-path="url(#clipPath2)" stroke="none">Factory Method</text>
      <rect x="644.4639" y="731" clip-path="url(#clipPath2)" fill="none" width="124.6152" rx="4" ry="4" height="30"/>
    </g>
    <g fill="rgb(32,79,197)" transform="matrix(1,0,0,1,-74,-133)" stroke="rgb(32,79,197)">
      <rect x="450.8389" y="858" clip-path="url(#clipPath2)" width="131.6152" rx="4" ry="4" height="30" stroke="none"/>
      <rect x="458.1826" y="864.0156" clip-path="url(#clipPath2)" fill="rgb(97,154,197)" width="116.9277" height="17.9688" stroke="none"/>
      <rect x="458.1826" y="864.0156" clip-path="url(#clipPath2)" fill="none" width="116.9277" height="17.9688" stroke="black" stroke-miterlimit="1.6"/>
    </g>
    <g stroke-miterlimit="1.45" font-weight="bold" font-family="sans-serif" transform="matrix(1,0,0,1,-74,-133)" stroke-linecap="butt">
      <text x="460.1826" xml:space="preserve" y="877.1562" clip-path="url(#clipPath2)" stroke="none">Abstract Factory</text>
      <rect x="450.8389" y="858" clip-path="url(#clipPath2)" fill="none" width="131.6152" rx="4" ry="4" height="30"/>
    </g>
    <g fill="rgb(32,79,197)" transform="matrix(1,0,0,1,-74,-133)" stroke="rgb(32,79,197)">
      <rect x="177.6895" y="802" clip-path="url(#clipPath2)" width="85.5781" rx="4" ry="4" height="30" stroke="none"/>
      <rect x="184.8662" y="808.0156" clip-path="url(#clipPath2)" fill="rgb(97,154,197)" width="71.2246" height="17.9688" stroke="none"/>
      <rect x="184.8662" y="808.0156" clip-path="url(#clipPath2)" fill="none" width="71.2246" height="17.9688" stroke="black" stroke-miterlimit="1.6"/>
    </g>
    <g stroke-miterlimit="1.45" font-weight="bold" font-family="sans-serif" transform="matrix(1,0,0,1,-74,-133)" stroke-linecap="butt">
      <text x="186.8662" xml:space="preserve" y="821.1562" clip-path="url(#clipPath2)" stroke="none">Prototype</text>
      <rect x="177.6895" y="802" clip-path="url(#clipPath2)" fill="none" width="85.5781" rx="4" ry="4" height="30"/>
    </g>
    <g fill="rgb(32,79,197)" transform="matrix(1,0,0,1,-74,-133)" stroke="rgb(32,79,197)">
      <rect x="177.6895" y="923" clip-path="url(#clipPath2)" width="84.04" rx="4" ry="4" height="30" stroke="none"/>
      <rect x="185.3774" y="929.0156" clip-path="url(#clipPath2)" fill="rgb(199,137,51)" width="68.6641" height="17.9688" stroke="none"/>
      <rect x="185.3774" y="929.0156" clip-path="url(#clipPath2)" fill="none" width="68.6641" height="17.9688" stroke="black" stroke-miterlimit="1.6"/>
    </g>
    <g stroke-miterlimit="1.45" font-weight="bold" font-family="sans-serif" transform="matrix(1,0,0,1,-74,-133)" stroke-linecap="butt">
      <text x="187.3774" xml:space="preserve" y="942.1562" clip-path="url(#clipPath2)" stroke="none">Singleton</text>
      <rect x="177.6895" y="923" clip-path="url(#clipPath2)" fill="none" width="84.04" rx="4" ry="4" height="30"/>
    </g>
    <g fill="rgb(138,173,106)" transform="matrix(1,0,0,1,-74,-133)" stroke="rgb(138,173,106)">
      <rect x="464.1221" y="971" clip-path="url(#clipPath2)" width="67.7246" rx="4" ry="4" height="30" stroke="none"/>
      <rect x="471.8672" y="977.0156" clip-path="url(#clipPath2)" fill="rgb(182,204,162)" width="52.2344" height="17.9688" stroke="none"/>
      <rect x="471.8672" y="977.0156" clip-path="url(#clipPath2)" fill="none" width="52.2344" height="17.9688" stroke="black" stroke-miterlimit="1.6"/>
    </g>
    <g stroke-miterlimit="1.45" font-weight="bold" font-family="sans-serif" transform="matrix(1,0,0,1,-74,-133)" stroke-linecap="butt">
      <text x="473.8672" xml:space="preserve" y="990.1562" clip-path="url(#clipPath2)" stroke="none">Facade</text>
      <rect x="464.1221" y="971" clip-path="url(#clipPath2)" fill="none" width="67.7246" rx="4" ry="4" height="30"/>
    </g>
  </g>
</svg>
